<svg width="30" height="30" viewBox="0 0 30 30" fill="none" xmlns="http://www.w3.org/2000/svg">
<path d="M8.125 25C6.22917 25 4.60958 24.3437 3.26625 23.0312C1.92208 21.7187 1.25 20.1146 1.25 18.2188C1.25 16.5938 1.73958 15.1458 2.71875 13.875C3.69792 12.6042 4.97917 11.7917 6.5625 11.4375C7.04167 9.75 7.9325 8.33333 9.235 7.1875C10.5367 6.04167 12.0417 5.34375 13.75 5.09375V15.1875L11.75 13.25L10 15L15 20L20 15L18.25 13.25L16.25 15.1875V5.09375C18.3958 5.38542 20.1825 6.34875 21.61 7.98375C23.0367 9.61958 23.75 11.5417 23.75 13.75C25.1875 13.9167 26.3804 14.5363 27.3288 15.6088C28.2763 16.6821 28.75 17.9375 28.75 19.375C28.75 20.9375 28.2033 22.2658 27.11 23.36C26.0158 24.4533 24.6875 25 23.125 25H8.125Z" fill="#3297CF"/>
</svg>
